# xmcd CD database file
#
# Track frame offsets:
#	150
#	19400
#	37169
#	51622
#	72388
#	95298
#	119694
#	138587
#	166053
#	187653
#	210393
#	226038
#	250355
#	274169
#	292404
#	310065
#
# Disc length: 4423 seconds
#
# Revision: 0
# Processed by: cddbd v1.5.2PL0 Copyright (c) Steve Scherf et al.
# Submitted via: CDex 1.51
#
DISCID=f3114510
DTITLE=Peter Fessler - Voices On The Stair
DYEAR=2007
DGENRE=Jazz
TTITLE0=Across The Water
TTITLE1=Feel Fine
TTITLE2=Little Boat
TTITLE3=Poinciana
TTITLE4=I Am Here
TTITLE5=Landscape Tapestry
TTITLE6=Happy Morning
TTITLE7=Tristeza
TTITLE8=Somewhere Over The Rainbow
TTITLE9=Strangers In The Night
TTITLE10=If You Never Come To Me
TTITLE11=Hello
TTITLE12=Find The Words
TTITLE13=Dancing On A Ray
TTITLE14=Voices On The Stair
TTITLE15=Years Gone By
EXTD=YEAR: 2007
EXTT0=
EXTT1=
EXTT2=
EXTT3=
EXTT4=
EXTT5=
EXTT6=
EXTT7=
EXTT8=
EXTT9=
EXTT10=
EXTT11=
EXTT12=
EXTT13=
EXTT14=
EXTT15=
PLAYORDER=
